<svg id="Capa_1" enable-background="new 0 0 512 512" height="512" viewBox="0 0 512 512" width="512" xmlns="http://www.w3.org/2000/svg" xmlns:xlink="http://www.w3.org/1999/xlink"><linearGradient id="SVGID_1_" gradientUnits="userSpaceOnUse" x1="0" x2="512" y1="256" y2="256"><stop offset="0" stop-color="#9dd6fc"/><stop offset=".0056" stop-color="#9dd6fc"/><stop offset="1" stop-color="#d17ff7"/></linearGradient><g><g><path d="m216 256c33.084 0 60-26.916 60-60s-26.916-60-60-60-60 26.916-60 60 26.916 60 60 60zm0-80c11.028 0 20 8.972 20 20s-8.972 20-20 20-20-8.972-20-20 8.972-20 20-20zm276-120h-472c-11.046 0-20 8.954-20 20v360c0 11.015 8.98 20 19.998 20h472.001c11.046 0 20-8.954 20-20v-360c.001-11.046-8.954-20-19.999-20zm-20 360h-404.688l88.895-91.509 45.651 45.651c3.75 3.751 8.838 5.858 14.142 5.858s10.392-2.107 14.142-5.858l145.615-145.616 96.243 99.56zm0-149.466-81.62-84.435c-3.728-3.856-8.848-6.053-14.21-6.099-5.394-.053-10.519 2.065-14.312 5.857l-145.858 145.859-45.858-45.858c-3.752-3.753-8.839-5.858-14.142-5.858-.048 0-.097 0-.145 0-5.354.039-10.47 2.223-14.201 6.064l-101.654 104.644v-290.708h432z" fill="url(#SVGID_1_)"/></g></g></svg>